<?xml version="1.0" standalone="no"?>
<!DOCTYPE svg PUBLIC "-//W3C//DTD SVG 20010904//EN"
 "http://www.w3.org/TR/2001/REC-SVG-20010904/DTD/svg10.dtd">
<svg version="1.0" xmlns="http://www.w3.org/2000/svg"
 width="512.000000pt" height="512.000000pt" viewBox="0 0 512.000000 512.000000"
 preserveAspectRatio="xMidYMid meet">

<g transform="translate(0.000000,512.000000) scale(0.100000,-0.100000)"
fill="#000000" stroke="none">
<path d="M0 2560 l0 -2560 2560 0 2560 0 0 2560 0 2560 -2560 0 -2560 0 0
-2560z m3804 2300 c18 -20 53 -70 77 -111 24 -40 58 -88 77 -106 28 -28 40
-33 82 -33 26 0 88 9 137 21 48 12 110 22 137 22 41 1 52 -3 72 -27 30 -34 30
-60 -1 -198 -14 -61 -25 -124 -25 -140 0 -61 33 -95 177 -181 71 -43 123 -98
123 -130 0 -46 -38 -83 -161 -159 -99 -61 -139 -106 -139 -156 0 -20 11 -84
25 -142 28 -118 30 -148 14 -184 -24 -52 -75 -55 -244 -15 -153 36 -185 22
-273 -120 -83 -134 -119 -168 -170 -156 -38 8 -66 39 -145 162 -94 146 -109
151 -300 107 -214 -49 -249 -11 -197 211 26 113 26 175 -1 209 -11 14 -65 53
-120 87 -116 71 -149 106 -149 156 0 45 37 82 154 153 110 66 136 96 136 160
0 27 -9 86 -20 132 -11 46 -20 95 -20 110 0 34 13 31 140 -29 83 -40 107 -57
185 -137 71 -72 111 -126 192 -257 56 -91 112 -174 123 -184 32 -29 87 -25
116 9 38 44 31 72 -57 217 -136 225 -220 331 -332 420 l-49 39 45 0 c59 0 90
26 153 128 69 111 95 143 127 157 42 17 72 8 111 -35z m-1499 -1218 c44 -12
77 -76 83 -164 l5 -70 -29 6 c-161 33 -469 33 -577 0 -16 -5 -18 -2 -12 18 23
81 129 183 224 213 48 16 242 14 306 -3z m49 -352 c359 -70 684 -272 905 -564
97 -127 137 -206 150 -291 58 -395 -28 -799 -243 -1130 -236 -363 -603 -611
-1046 -706 -90 -20 -134 -23 -310 -23 -229 0 -324 15 -517 79 -113 38 -275
115 -312 148 -28 26 -136 165 -173 223 -84 131 -161 322 -200 495 -20 90 -23
131 -23 304 0 173 3 214 23 304 95 425 343 767 713 986 181 107 382 171 629
199 76 9 303 -5 404 -24z"/>
<path d="M1047 2360 c-74 -65 -117 -229 -97 -370 27 -190 133 -294 237 -231
57 35 113 164 113 260 0 46 0 46 -35 47 -43 1 -90 42 -99 86 -8 42 20 96 60
116 l33 15 -17 30 c-46 80 -134 101 -195 47z"/>
<path d="M2555 2348 c-55 -56 -85 -137 -92 -248 -12 -194 70 -360 179 -360 82
0 161 121 175 265 l6 62 -46 -1 c-83 -2 -135 77 -101 151 26 54 94 78 147 52
21 -10 21 -10 3 5 -11 9 -26 16 -33 16 -7 0 -35 23 -61 50 -43 45 -53 50 -91
50 -38 0 -49 -6 -86 -42z"/>
<path d="M1278 2283 c6 -2 18 -2 25 0 6 3 1 5 -13 5 -14 0 -19 -2 -12 -5z"/>
<path d="M1380 2169 c0 -33 -6 -47 -34 -75 -19 -19 -30 -34 -26 -34 4 0 22 16
39 35 24 27 31 45 31 75 0 22 -2 40 -5 40 -3 0 -5 -18 -5 -41z"/>
<path d="M2880 2171 c0 -27 -8 -50 -26 -73 l-26 -33 31 33 c24 25 31 41 31 72
0 22 -2 40 -5 40 -3 0 -5 -18 -5 -39z"/>
<path d="M1385 1766 c-13 -19 -14 -32 -5 -71 20 -90 67 -153 141 -191 91 -46
190 -41 272 12 l37 24 38 -24 c133 -88 316 -37 386 107 44 88 34 167 -19 167
-30 0 -41 -16 -50 -67 -12 -76 -69 -138 -137 -149 -63 -11 -107 4 -158 52 -26
24 -53 44 -60 44 -7 0 -34 -20 -60 -44 -51 -48 -95 -63 -158 -52 -68 11 -125
73 -137 149 -4 23 -12 48 -17 55 -17 20 -56 14 -73 -12z"/>
</g>
</svg>
